<svg id="visual" viewBox="0 0 1920 1080" width="1920" height="1080" xmlns="http://www.w3.org/2000/svg" xmlns:xlink="http://www.w3.org/1999/xlink" version="1.1"><path d="M0 323L40 335C80 347 160 371 240 355.7C320 340.3 400 285.7 480 257.3C560 229 640 227 720 259.2C800 291.3 880 357.7 960 392.8C1040 428 1120 432 1200 413.8C1280 395.7 1360 355.3 1440 323C1520 290.7 1600 266.3 1680 272C1760 277.7 1840 313.3 1880 331.2L1920 349L1920 0L1880 0C1840 0 1760 0 1680 0C1600 0 1520 0 1440 0C1360 0 1280 0 1200 0C1120 0 1040 0 960 0C880 0 800 0 720 0C640 0 560 0 480 0C400 0 320 0 240 0C160 0 80 0 40 0L0 0Z" fill="#415865" stroke-linecap="round" stroke-linejoin="miter"></path></svg>