<svg id="visual" viewBox="0 0 1920 700" width="1920" height="700" xmlns="http://www.w3.org/2000/svg" xmlns:xlink="http://www.w3.org/1999/xlink" version="1.1"><path d="M0 209L40 216.8C80 224.7 160 240.3 240 230.3C320 220.3 400 184.7 480 166.2C560 147.7 640 146.3 720 167.3C800 188.3 880 231.7 960 254.5C1040 277.3 1120 279.7 1200 267.8C1280 256 1360 230 1440 209C1520 188 1600 172 1680 175.7C1760 179.3 1840 202.7 1880 214.3L1920 226L1920 0L1880 0C1840 0 1760 0 1680 0C1600 0 1520 0 1440 0C1360 0 1280 0 1200 0C1120 0 1040 0 960 0C880 0 800 0 720 0C640 0 560 0 480 0C400 0 320 0 240 0C160 0 80 0 40 0L0 0Z" fill="#415865" stroke-linecap="round" stroke-linejoin="miter"></path></svg>