<svg width="1920" height="400" viewBox="0 0 1920 400" fill="none" xmlns="http://www.w3.org/2000/svg">
<path d="M0 304.18L40 315.532C80 327.03 160 349.734 240 335.18C320 320.626 400 268.813 480 241.888C560 214.963 640 212.926 720 243.489C800 274.053 880 337.217 960 370.401C1040 403.584 1120 407.077 1200 389.758C1280 372.584 1360 334.743 1440 304.18C1520 273.616 1600 250.33 1680 255.715C1760 260.954 1840 295.011 1880 311.893L1920 328.922V0H1880C1840 0 1760 0 1680 0C1600 0 1520 0 1440 0C1360 0 1280 0 1200 0C1120 0 1040 0 960 0C880 0 800 0 720 0C640 0 560 0 480 0C400 0 320 0 240 0C160 0 80 0 40 0H0V304.18Z" fill="#415865"/>
</svg>
